<?xml version="1.0" encoding="utf-8"?>
<!-- Generator: Adobe Illustrator 26.0.1, SVG Export Plug-In . SVG Version: 6.00 Build 0)  -->
<svg version="1.1" id="Layer_1" xmlns="http://www.w3.org/2000/svg" xmlns:xlink="http://www.w3.org/1999/xlink" x="0px" y="0px"
	 viewBox="0 0 874.67 185.26" style="enable-background:new 0 0 874.67 185.26;" xml:space="preserve">
<style type="text/css">
	.st0{fill-rule:evenodd;clip-rule:evenodd;fill:#CF9A2C;}
	.st1{filter:url(#Adobe_OpacityMaskFilter);}
	.st2{fill:url(#SVGID_00000123419797264831463100000009076134354688538006_);}
	.st3{mask:url(#SVGID_1_);fill-rule:evenodd;clip-rule:evenodd;fill:#FFFFFF;}
	.st4{filter:url(#Adobe_OpacityMaskFilter_00000117647494792393333750000009329071113612235940_);}
	.st5{fill:url(#SVGID_00000108988067649141783450000016369331454580127912_);}
	.st6{mask:url(#SVGID_00000043443529298033638070000006847448126612579237_);fill-rule:evenodd;clip-rule:evenodd;fill:#FFFFFF;}
	.st7{filter:url(#Adobe_OpacityMaskFilter_00000093857954145919244890000014006996077400077492_);}
	.st8{fill:url(#SVGID_00000005263182081754469400000004756721624481839254_);}
	.st9{mask:url(#SVGID_00000139295247990283431690000010654468342647660161_);fill-rule:evenodd;clip-rule:evenodd;fill:#FFFFFF;}
	.st10{filter:url(#Adobe_OpacityMaskFilter_00000155143572921275833220000015734554581577027226_);}
	.st11{fill:url(#SVGID_00000062177911148527819940000008672859606749525917_);}
	.st12{mask:url(#SVGID_00000132080052174728024020000000032595765517847438_);fill-rule:evenodd;clip-rule:evenodd;fill:#FFFFFF;}
	.st13{filter:url(#Adobe_OpacityMaskFilter_00000168839148863583025780000008063559058462714505_);}
	.st14{fill:url(#SVGID_00000163755760296460819090000017131210781009401508_);}
	.st15{mask:url(#SVGID_00000036943092255864607750000011645713320555385747_);fill-rule:evenodd;clip-rule:evenodd;fill:#FFFFFF;}
	.st16{filter:url(#Adobe_OpacityMaskFilter_00000013915216760155354140000009920325129020585631_);}
	.st17{fill:url(#SVGID_00000113343946487190993210000015345022865141381533_);}
	.st18{mask:url(#SVGID_00000059309203535393141270000007408046321032364705_);fill-rule:evenodd;clip-rule:evenodd;fill:#FFFFFF;}
	.st19{filter:url(#Adobe_OpacityMaskFilter_00000131351162437877303600000004976443418225275274_);}
	.st20{fill:url(#SVGID_00000091693940918078658820000001126937908004803511_);}
	.st21{mask:url(#SVGID_00000065064472123802640050000008835697178965267584_);fill-rule:evenodd;clip-rule:evenodd;fill:#FFFFFF;}
	.st22{filter:url(#Adobe_OpacityMaskFilter_00000157306430727617445000000004915744493084106134_);}
	.st23{fill:url(#SVGID_00000109015163263195751230000015792799234115273639_);}
	.st24{mask:url(#SVGID_00000030462305584166963540000017918011638412568254_);fill-rule:evenodd;clip-rule:evenodd;fill:#FFFFFF;}
	.st25{filter:url(#Adobe_OpacityMaskFilter_00000005249006234153027950000014697145129885220015_);}
	.st26{fill:url(#SVGID_00000045579777081927097200000000438442969260702111_);}
	.st27{mask:url(#SVGID_00000161606750086922396420000014421177141519756177_);fill-rule:evenodd;clip-rule:evenodd;fill:#FFFFFF;}
	.st28{filter:url(#Adobe_OpacityMaskFilter_00000133515570713696689170000015901002249239769256_);}
	.st29{fill:url(#SVGID_00000009560058855880469290000002116082789257591981_);}
	.st30{mask:url(#SVGID_00000156585916458445509200000002713976297655389586_);fill-rule:evenodd;clip-rule:evenodd;fill:#FFFFFF;}
	.st31{filter:url(#Adobe_OpacityMaskFilter_00000134959656795404069220000004872913544899974587_);}
	.st32{fill:url(#SVGID_00000092426894856169040780000012069979494816056759_);}
	.st33{mask:url(#SVGID_00000141452826296620992450000003609659070448048518_);fill-rule:evenodd;clip-rule:evenodd;fill:#FFFFFF;}
	.st34{filter:url(#Adobe_OpacityMaskFilter_00000147904064370661072210000005531533438275735728_);}
	.st35{fill:url(#SVGID_00000142863440013557809740000014904361494781802910_);}
	.st36{mask:url(#SVGID_00000018239534302779694920000002798042683287267202_);fill-rule:evenodd;clip-rule:evenodd;fill:#FFFFFF;}
	.st37{filter:url(#Adobe_OpacityMaskFilter_00000030460420657853216230000003159004263958839173_);}
	.st38{fill:url(#SVGID_00000058581832978662637890000006048138626130296503_);}
	.st39{mask:url(#SVGID_00000125600471910902433560000018325962838855392411_);fill-rule:evenodd;clip-rule:evenodd;fill:#FFFFFF;}
	.st40{filter:url(#Adobe_OpacityMaskFilter_00000003812813826477730480000011352092600004531642_);}
	.st41{fill:url(#SVGID_00000087406908887389609520000002321691178241367951_);}
	.st42{mask:url(#SVGID_00000104696188482532129460000011564743565363519639_);fill-rule:evenodd;clip-rule:evenodd;fill:#FFFFFF;}
	.st43{filter:url(#Adobe_OpacityMaskFilter_00000038395718636413240050000015268250264838935224_);}
	.st44{fill:url(#SVGID_00000056421986022794444620000006336681271665806995_);}
	.st45{mask:url(#SVGID_00000086667120789486359530000008148799297661860770_);fill-rule:evenodd;clip-rule:evenodd;fill:#FFFFFF;}
	.st46{filter:url(#Adobe_OpacityMaskFilter_00000124155770804429862920000002955767766857680284_);}
	.st47{fill:url(#SVGID_00000160174085802300310010000014067876295563257986_);}
	.st48{mask:url(#SVGID_00000023255878621818434820000005020983387281068716_);fill-rule:evenodd;clip-rule:evenodd;fill:#FFFFFF;}
	.st49{fill:#CF9A2C;}
	.st50{filter:url(#Adobe_OpacityMaskFilter_00000148644820054889367670000015739490389668791212_);}
	.st51{fill:url(#SVGID_00000167361023506547971450000006887488426889579697_);}
	.st52{mask:url(#SVGID_00000036961094049398426970000017474850382501093545_);fill-rule:evenodd;clip-rule:evenodd;fill:#FFFFFF;}
	.st53{filter:url(#Adobe_OpacityMaskFilter_00000088826153039323513680000015885293290027346328_);}
	.st54{fill:url(#SVGID_00000086667227290413195990000009553522333538685068_);}
	.st55{mask:url(#SVGID_00000008109722479285975750000017108043268583954867_);fill-rule:evenodd;clip-rule:evenodd;fill:#FFFFFF;}
</style>
<g>
	<polygon class="st0" points="157.09,110.1 174.33,78.64 162.48,78.64 157.09,88.27 147.34,71.07 179.27,71.07 185.53,59.55 
		128.25,59.55 	"/>
	<defs>
		<filter id="Adobe_OpacityMaskFilter" filterUnits="userSpaceOnUse" x="133.92" y="59.55" width="51.6" height="40.51">
			<feColorMatrix  type="matrix" values="1 0 0 0 0  0 1 0 0 0  0 0 1 0 0  0 0 0 1 0"/>
		</filter>
	</defs>
	<mask maskUnits="userSpaceOnUse" x="133.92" y="59.55" width="51.6" height="40.51" id="SVGID_1_">
		<g class="st1">
			
				<linearGradient id="SVGID_00000089541666930085663550000010994826792212863670_" gradientUnits="userSpaceOnUse" x1="-557.7833" y1="329.0193" x2="-557.7833" y2="384.4565" gradientTransform="matrix(1 0 0 1 717.5095 -296.2009)">
				<stop  offset="0" style="stop-color:#FFFFFF"/>
				<stop  offset="1" style="stop-color:#000000"/>
			</linearGradient>
			
				<rect x="133.92" y="59.55" style="fill:url(#SVGID_00000089541666930085663550000010994826792212863670_);" width="51.6" height="40.51"/>
		</g>
	</mask>
	<polygon class="st3" points="157.03,100.05 168.77,78.64 162.48,78.64 157.11,88.27 147.34,71.07 179.32,71.07 185.53,59.55 
		133.92,59.55 	"/>
	<path class="st0" d="M107.85,150.47c0.19,2.31,2.63,5.79,3.69,7.74c4.66,8.62,10.72,5.88,16.36,6.5c4.62,0.5,6.29,3.31,8,3.77
		l-5.99-12.02c-4.5-7.43-10.06-6.34-18.94-6.34C109.23,150.12,109.41,150.43,107.85,150.47"/>
	<path class="st0" d="M146.23,185.02c-0.56-2.39-2.3-5.65-3.53-7.56c-3.34-5.2-5.78-4.22-13.44-4.22c0.05,2.14,2.78,7.4,5.66,8.54
		c2.36,0.93,4.23,0.08,6.67,0.6C143.5,182.78,144.87,184.1,146.23,185.02"/>
	<path class="st0" d="M20.78,82.34h40.17c8.84,0,12.07-1.66,19.28,2.19c1.81,0.97,2.94,2.12,4.62,3c-0.99-4.25-6.6-13.78-9.2-18.16
		c-4.07-6.88-9.71-7.46-20.24-7.46c-18.47,0-36.94,0-55.41,0c0.32,3.86,7.34,16.1,12.22,18.6C14.18,81.51,17.92,82.34,20.78,82.34"
		/>
	<path class="st0" d="M40.02,91.63c0.59,1.22,0.96,2.27,1.61,3.58c0.68,1.35,1.2,2.46,1.84,3.7c4.31,8.27,8.38,12.87,19.74,12.81
		c4.39-0.02,28.46-0.55,31.62,0.59c3.65,1.32,5.65,3.13,7.52,3.57c-1.85-7.95-8.9-20.09-16.62-23.55
		c-4.76-2.14-28.12-1.38-34.63-1.38L40.02,91.63z"/>
	<path class="st0" d="M122.47,146.67c-1.08-4.64-8.68-18.15-11.85-21.39c-3.54-3.62-7.21-4.23-12.02-4.61
		c-1.82-0.14-15.39-0.24-16.14,0.18c-0.77,0.43-0.52-0.05-0.19,1.16c0.7,2.51,3.74,7.35,4.99,9.65c8.54,15.79,18.16,5.6,30.01,11.54
		C119.59,144.36,120.53,145.37,122.47,146.67"/>
	<defs>
		
			<filter id="Adobe_OpacityMaskFilter_00000119822088966660390880000017677886549828616583_" filterUnits="userSpaceOnUse" x="112.54" y="153.36" width="16.19" height="8.13">
			<feColorMatrix  type="matrix" values="1 0 0 0 0  0 1 0 0 0  0 0 1 0 0  0 0 0 1 0"/>
		</filter>
	</defs>
	
		<mask maskUnits="userSpaceOnUse" x="112.54" y="153.36" width="16.19" height="8.13" id="SVGID_00000125578059551349633970000016662329013778163376_">
		<g style="filter:url(#Adobe_OpacityMaskFilter_00000119822088966660390880000017677886549828616583_);">
			
				<linearGradient id="SVGID_00000021801145491630053980000005458072283997711770_" gradientUnits="userSpaceOnUse" x1="-593.1382" y1="435.4497" x2="-593.1382" y2="445.5865" gradientTransform="matrix(1 0 0 1 713.7763 -285.4738)">
				<stop  offset="0" style="stop-color:#FFFFFF"/>
				<stop  offset="1" style="stop-color:#000000"/>
			</linearGradient>
			
				<rect x="112.54" y="153.36" style="fill:url(#SVGID_00000021801145491630053980000005458072283997711770_);" width="16.19" height="8.13"/>
		</g>
	</mask>
	
		<path style="mask:url(#SVGID_00000125578059551349633970000016662329013778163376_);fill-rule:evenodd;clip-rule:evenodd;fill:#FFFFFF;" d="
		M112.54,153.41c0.73,1.29,1.53,2.57,1.89,3.23c3.62,6.68,7.63,4.12,13.82,4.79c0.16,0.02,0.32,0.04,0.48,0.06l-1.71-3.43
		c-1.41-2.3-2.96-3.76-5.63-4.33c-1.41-0.3-2.94-0.35-4.38-0.36C115.53,153.35,114.03,153.39,112.54,153.41"/>
	<defs>
		
			<filter id="Adobe_OpacityMaskFilter_00000168086484256973140240000003530577859776455062_" filterUnits="userSpaceOnUse" x="134.04" y="176.46" width="5.67" height="2.48">
			<feColorMatrix  type="matrix" values="1 0 0 0 0  0 1 0 0 0  0 0 1 0 0  0 0 0 1 0"/>
		</filter>
	</defs>
	
		<mask maskUnits="userSpaceOnUse" x="134.04" y="176.46" width="5.67" height="2.48" id="SVGID_00000068653330872281833020000005532556016841748386_">
		<g style="filter:url(#Adobe_OpacityMaskFilter_00000168086484256973140240000003530577859776455062_);">
			
				<linearGradient id="SVGID_00000129176818896879863700000004607370264950445992_" gradientUnits="userSpaceOnUse" x1="-580.6562" y1="456.2764" x2="-580.6562" y2="461.3162" gradientTransform="matrix(1 0 0 1 717.5293 -282.4248)">
				<stop  offset="0" style="stop-color:#FFFFFF"/>
				<stop  offset="1" style="stop-color:#000000"/>
			</linearGradient>
			
				<rect x="134.04" y="176.46" style="fill:url(#SVGID_00000129176818896879863700000004607370264950445992_);" width="5.67" height="2.49"/>
		</g>
	</mask>
	
		<path style="mask:url(#SVGID_00000068653330872281833020000005532556016841748386_);fill-rule:evenodd;clip-rule:evenodd;fill:#FFFFFF;" d="
		M139.71,178.9c-0.7-1.06-1.46-2.01-2.77-2.27c-0.87-0.18-1.9-0.17-2.79-0.17c-0.04,0-0.07,0-0.11,0c0.69,1.07,1.49,2,2.1,2.25
		c0.65,0.26,1.31,0.25,1.99,0.22C138.68,178.92,139.2,178.9,139.71,178.9"/>
	<defs>
		
			<filter id="Adobe_OpacityMaskFilter_00000070838481037835554750000000808959680927979188_" filterUnits="userSpaceOnUse" x="4.57" y="65.21" width="73.27" height="14.66">
			<feColorMatrix  type="matrix" values="1 0 0 0 0  0 1 0 0 0  0 0 1 0 0  0 0 0 1 0"/>
		</filter>
	</defs>
	
		<mask maskUnits="userSpaceOnUse" x="4.57" y="65.21" width="73.27" height="14.66" id="SVGID_00000101817030517782711660000012769077102913656479_">
		<g style="filter:url(#Adobe_OpacityMaskFilter_00000070838481037835554750000000808959680927979188_);">
			
				<linearGradient id="SVGID_00000028287484736633608220000005903256991038917520_" gradientUnits="userSpaceOnUse" x1="-653.7188" y1="354.6275" x2="-653.7188" y2="378.7953" gradientTransform="matrix(1 0 0 1 694.9227 -299.7247)">
				<stop  offset="0" style="stop-color:#FFFFFF"/>
				<stop  offset="1" style="stop-color:#000000"/>
			</linearGradient>
			
				<rect x="4.57" y="65.21" style="fill:url(#SVGID_00000028287484736633608220000005903256991038917520_);" width="73.27" height="14.67"/>
		</g>
	</mask>
	
		<path style="mask:url(#SVGID_00000101817030517782711660000012769077102913656479_);fill-rule:evenodd;clip-rule:evenodd;fill:#FFFFFF;" d="
		M77.84,79.87c-1.6-2.98-3.3-5.9-5.03-8.81c-1.45-2.45-3.12-4-5.84-4.84c-3.39-1.06-8.03-1-11.56-1c-16.95,0-33.89,0-50.84,0
		c0.9,1.87,2.04,3.83,2.63,4.77c1.32,2.11,4.33,6.47,6.53,7.59c1.75,0.9,5.06,1.48,7.06,1.48h40.17
		C67.97,79.05,72.08,77.87,77.84,79.87"/>
	<defs>
		
			<filter id="Adobe_OpacityMaskFilter_00000031904840024731663470000011189484745709163419_" filterUnits="userSpaceOnUse" x="45.02" y="94.11" width="51.41" height="15.27">
			<feColorMatrix  type="matrix" values="1 0 0 0 0  0 1 0 0 0  0 0 1 0 0  0 0 0 1 0"/>
		</filter>
	</defs>
	
		<mask maskUnits="userSpaceOnUse" x="45.02" y="94.11" width="51.41" height="15.27" id="SVGID_00000116221898091972467960000013890487200468324245_">
		<g style="filter:url(#Adobe_OpacityMaskFilter_00000031904840024731663470000011189484745709163419_);">
			
				<linearGradient id="SVGID_00000084508576341447096950000007587119175097662872_" gradientUnits="userSpaceOnUse" x1="-631.256" y1="382.7062" x2="-631.256" y2="399.8872" gradientTransform="matrix(1 0 0 1 701.9864 -294.5721)">
				<stop  offset="0" style="stop-color:#FFFFFF"/>
				<stop  offset="1" style="stop-color:#000000"/>
			</linearGradient>
			
				<rect x="45.02" y="94.11" style="fill:url(#SVGID_00000084508576341447096950000007587119175097662872_);" width="51.41" height="15.27"/>
		</g>
	</mask>
	
		<path style="mask:url(#SVGID_00000116221898091972467960000013890487200468324245_);fill-rule:evenodd;clip-rule:evenodd;fill:#FFFFFF;" d="
		M45.02,94.62c0.45,0.92,0.9,1.85,1.38,2.76c4.13,7.94,7.42,11.09,16.8,11.04c5.43-0.03,10.86-0.15,16.29-0.14
		c3.27,0,6.55,0.03,9.82,0.16c1.84,0.07,4.94,0.15,6.65,0.77c0.16,0.06,0.32,0.12,0.48,0.18c-2.87-5.86-7.4-11.97-12.05-14.06
		c-1.13-0.51-4.15-0.74-5.41-0.84c-3.29-0.25-6.63-0.33-9.94-0.37c-5.95-0.06-11.88,0.11-17.83,0.11L45.02,94.62z"/>
	<defs>
		
			<filter id="Adobe_OpacityMaskFilter_00000054972848343031679820000010333135011056027041_" filterUnits="userSpaceOnUse" x="86.66" y="123.84" width="28.83" height="15.08">
			<feColorMatrix  type="matrix" values="1 0 0 0 0  0 1 0 0 0  0 0 1 0 0  0 0 0 1 0"/>
		</filter>
	</defs>
	
		<mask maskUnits="userSpaceOnUse" x="86.66" y="123.84" width="28.83" height="15.08" id="SVGID_00000124844601337607879800000011937846334432751551_">
		<g style="filter:url(#Adobe_OpacityMaskFilter_00000054972848343031679820000010333135011056027041_);">
			
				<linearGradient id="SVGID_00000118365291406579696270000003504354599679126925_" gradientUnits="userSpaceOnUse" x1="-608.1804" y1="406.6347" x2="-608.1804" y2="425.0756" gradientTransform="matrix(1 0 0 1 709.257 -289.4131)">
				<stop  offset="0" style="stop-color:#FFFFFF"/>
				<stop  offset="1" style="stop-color:#000000"/>
			</linearGradient>
			
				<rect x="86.66" y="123.84" style="fill:url(#SVGID_00000118365291406579696270000003504354599679126925_);" width="28.83" height="15.09"/>
		</g>
	</mask>
	
		<path style="mask:url(#SVGID_00000124844601337607879800000011937846334432751551_);fill-rule:evenodd;clip-rule:evenodd;fill:#FFFFFF;" d="
		M115.49,138.93c-2.49-4.68-5.57-9.65-7.23-11.35c-2.9-2.96-5.95-3.32-9.92-3.62c-0.88-0.07-1.82-0.06-2.7-0.08
		c-1.61-0.03-3.22-0.04-4.83-0.03c-1.38,0-2.76,0.01-4.15,0.04c0.28,0.52,0.55,1.02,0.79,1.44c0.89,1.6,1.84,3.17,2.71,4.77
		c2.69,4.98,5.3,7.55,10.98,7.74c2.6,0.09,5.19-0.13,7.8-0.01C111.23,137.93,113.39,138.26,115.49,138.93"/>
	<polygon class="st0" points="157.08,184.61 229.46,58.97 195.33,58.97 157.08,126.11 118.07,58.97 84.32,58.97 	"/>
	<defs>
		
			<filter id="Adobe_OpacityMaskFilter_00000039108698239469375060000009323329733704862655_" filterUnits="userSpaceOnUse" x="93.76" y="58.96" width="126.27" height="109.31">
			<feColorMatrix  type="matrix" values="1 0 0 0 0  0 1 0 0 0  0 0 1 0 0  0 0 0 1 0"/>
		</filter>
	</defs>
	
		<mask maskUnits="userSpaceOnUse" x="93.76" y="58.96" width="126.27" height="109.31" id="SVGID_00000029753295144898514820000006956594826507608485_">
		<g style="filter:url(#Adobe_OpacityMaskFilter_00000039108698239469375060000009323329733704862655_);">
			
				<linearGradient id="SVGID_00000028311021724625582010000004088636581085975944_" gradientUnits="userSpaceOnUse" x1="-553.6044" y1="355.3778" x2="-553.6044" y2="439.1636" gradientTransform="matrix(1 0 0 1 710.4957 -284.2883)">
				<stop  offset="0" style="stop-color:#252525"/>
				<stop  offset="0.47" style="stop-color:#C7C7C7"/>
				<stop  offset="1" style="stop-color:#000000"/>
			</linearGradient>
			
				<rect x="93.76" y="58.96" style="fill:url(#SVGID_00000028311021724625582010000004088636581085975944_);" width="126.27" height="109.31"/>
		</g>
	</mask>
	
		<polygon style="mask:url(#SVGID_00000029753295144898514820000006956594826507608485_);fill-rule:evenodd;clip-rule:evenodd;fill:#FFFFFF;" points="
		157.06,168.28 220.03,58.98 195.35,58.98 157.09,126.11 118.09,58.96 93.76,58.96 	"/>
	<path class="st0" d="M179.02,10.15h-13.75c-3.03,0-4.13,0.57-6.6-0.75c-0.62-0.33-1-0.72-1.58-1.03c0.34,1.45,2.26,4.72,3.15,6.22
		c1.39,2.35,3.32,2.56,6.93,2.56c6.32,0,12.64,0,18.97,0c-0.11-1.32-2.51-5.51-4.19-6.37C181.28,10.44,180,10.15,179.02,10.15"/>
	<path class="st0" d="M157.09,0c0.42,1.61,1.75,3.8,2.68,5.08c2.54,3.5,4.39,2.84,10.21,2.84c-0.04-1.44-2.11-4.97-4.3-5.74
		c-1.8-0.63-3.22-0.05-5.07-0.4C159.16,1.5,158.12,0.61,157.09,0"/>
	<path class="st0" d="M212.07,35.98h-34.44c-7.58,0-10.35,1.42-16.53-1.88c-1.55-0.83-2.52-1.81-3.96-2.57
		c0.85,3.64,5.66,11.81,7.89,15.57c3.49,5.9,8.32,6.4,17.35,6.4c15.83,0,31.67,0,47.51,0c-0.28-3.31-6.29-13.81-10.48-15.94
		C217.73,36.7,214.52,35.98,212.07,35.98"/>
	<path class="st0" d="M190.98,20.61h-21.24c-4.68,0-6.38,0.88-10.2-1.16c-0.96-0.51-1.55-1.12-2.44-1.59
		c0.52,2.25,3.49,7.29,4.86,9.6c2.16,3.64,5.13,3.95,10.7,3.95c9.77,0,19.53,0,29.3,0c-0.17-2.04-3.88-8.52-6.46-9.83
		C194.47,21.06,192.49,20.61,190.98,20.61"/>
	<defs>
		
			<filter id="Adobe_OpacityMaskFilter_00000140012325882735270940000002025131934021751969_" filterUnits="userSpaceOnUse" x="164.11" y="38.9" width="61.09" height="11.3">
			<feColorMatrix  type="matrix" values="1 0 0 0 0  0 1 0 0 0  0 0 1 0 0  0 0 0 1 0"/>
		</filter>
	</defs>
	
		<mask maskUnits="userSpaceOnUse" x="164.11" y="38.9" width="61.09" height="11.3" id="SVGID_00000175311364337937851380000014807043072496179639_">
		<g style="filter:url(#Adobe_OpacityMaskFilter_00000140012325882735270940000002025131934021751969_);">
			
				<linearGradient id="SVGID_00000103980314907732762540000016598312615943792308_" gradientUnits="userSpaceOnUse" x1="-528.1223" y1="336.3232" x2="-528.1223" y2="355.1076" gradientTransform="matrix(1 0 0 1 722.7805 -304.9055)">
				<stop  offset="0" style="stop-color:#FFFFFF"/>
				<stop  offset="1" style="stop-color:#000000"/>
			</linearGradient>
			
				<rect x="164.11" y="38.9" style="fill:url(#SVGID_00000103980314907732762540000016598312615943792308_);" width="61.09" height="11.3"/>
		</g>
	</mask>
	
		<path style="mask:url(#SVGID_00000175311364337937851380000014807043072496179639_);fill-rule:evenodd;clip-rule:evenodd;fill:#FFFFFF;" d="
		M225.21,50.2c-0.7-1.37-1.48-2.71-1.9-3.38c-1.07-1.72-3.63-5.42-5.4-6.33c-1.44-0.73-4.2-1.21-5.83-1.21h-34.44
		c-5.63,0-9.08,0.86-13.51-0.38c1.21,2.2,2.47,4.36,3.75,6.52c1.19,2,2.52,3.25,4.75,3.95c2.85,0.88,6.81,0.84,9.77,0.84
		C196.65,50.2,210.93,50.2,225.21,50.2"/>
	<defs>
		
			<filter id="Adobe_OpacityMaskFilter_00000172440048683450501380000002805544387940496528_" filterUnits="userSpaceOnUse" x="163.78" y="23.91" width="33.15" height="4.21">
			<feColorMatrix  type="matrix" values="1 0 0 0 0  0 1 0 0 0  0 0 1 0 0  0 0 0 1 0"/>
		</filter>
	</defs>
	
		<mask maskUnits="userSpaceOnUse" x="163.78" y="23.91" width="33.15" height="4.21" id="SVGID_00000181788362815599816830000011520045152248500654_">
		<g style="filter:url(#Adobe_OpacityMaskFilter_00000172440048683450501380000002805544387940496528_);">
			
				<linearGradient id="SVGID_00000124865851626110308600000003031916444678086297_" gradientUnits="userSpaceOnUse" x1="-542.3683" y1="330.5286" x2="-542.3683" y2="336.3701" gradientTransform="matrix(1 0 0 1 722.723 -308.7604)">
				<stop  offset="0" style="stop-color:#FFFFFF"/>
				<stop  offset="1" style="stop-color:#000000"/>
			</linearGradient>
			
				<rect x="163.78" y="23.91" style="fill:url(#SVGID_00000124865851626110308600000003031916444678086297_);" width="33.15" height="4.21"/>
		</g>
	</mask>
	
		<path style="mask:url(#SVGID_00000181788362815599816830000011520045152248500654_);fill-rule:evenodd;clip-rule:evenodd;fill:#FFFFFF;" d="
		M163.78,24.07c0.4,0.68,0.76,1.28,1.02,1.72c0.57,0.96,1.15,1.54,2.21,1.87c1.6,0.5,3.99,0.46,5.65,0.46c8.09,0,16.17,0,24.26,0
		c-1.01-1.63-2.2-3.22-2.92-3.6c-0.7-0.35-2.23-0.61-3.02-0.61h-21.24C167.32,23.91,165.54,24.14,163.78,24.07"/>
	<path class="st0" d="M205.93,150.47c-0.19,2.31-2.64,5.79-3.69,7.74c-4.66,8.62-10.72,5.88-16.36,6.5c-4.62,0.5-6.29,3.31-8,3.77
		l5.99-12.02c4.5-7.43,10.06-6.34,18.94-6.34C204.55,150.12,204.36,150.43,205.93,150.47"/>
	<path class="st0" d="M167.55,185.02c0.56-2.39,2.3-5.65,3.53-7.56c3.34-5.2,5.79-4.22,13.44-4.22c-0.05,2.14-2.78,7.4-5.66,8.54
		c-2.36,0.93-4.23,0.08-6.68,0.6C170.28,182.78,168.91,184.1,167.55,185.02"/>
	<path class="st0" d="M293,82.34h-40.17c-8.84,0-12.07-1.66-19.28,2.19c-1.81,0.97-2.94,2.12-4.61,3c0.99-4.25,6.6-13.78,9.2-18.16
		c4.07-6.88,9.71-7.46,20.24-7.46c18.47,0,36.94,0,55.41,0c-0.32,3.86-7.34,16.1-12.22,18.6C299.6,81.51,295.86,82.34,293,82.34"/>
	<path class="st0" d="M273.76,91.63c-0.58,1.22-0.96,2.27-1.62,3.58c-0.68,1.35-1.2,2.46-1.84,3.7
		c-4.31,8.27-8.38,12.87-19.74,12.81c-4.39-0.02-28.46-0.55-31.62,0.59c-3.65,1.32-5.65,3.13-7.52,3.57
		c1.85-7.95,8.9-20.09,16.62-23.55c4.76-2.14,28.12-1.38,34.63-1.38L273.76,91.63z"/>
	<path class="st0" d="M191.31,146.67c1.08-4.64,8.68-18.15,11.85-21.39c3.54-3.62,7.2-4.23,12.02-4.61
		c1.82-0.14,15.39-0.24,16.14,0.18c0.76,0.43,0.52-0.05,0.19,1.16c-0.7,2.51-3.75,7.35-4.99,9.65c-8.54,15.79-18.16,5.6-30.01,11.54
		C194.18,144.36,193.25,145.37,191.31,146.67"/>
	<defs>
		
			<filter id="Adobe_OpacityMaskFilter_00000124874404770124952670000005106859998732388495_" filterUnits="userSpaceOnUse" x="185.05" y="153.36" width="16.19" height="8.13">
			<feColorMatrix  type="matrix" values="1 0 0 0 0  0 1 0 0 0  0 0 1 0 0  0 0 0 1 0"/>
		</filter>
	</defs>
	
		<mask maskUnits="userSpaceOnUse" x="185.05" y="153.36" width="16.19" height="8.13" id="SVGID_00000083770936463428079590000008412664728306156433_">
		<g style="filter:url(#Adobe_OpacityMaskFilter_00000124874404770124952670000005106859998732388495_);">
			
				<linearGradient id="SVGID_00000025435823451608364890000006642817650651902861_" gradientUnits="userSpaceOnUse" x1="-533.2965" y1="435.4497" x2="-533.2965" y2="445.5865" gradientTransform="matrix(1 0 0 1 726.4361 -285.4738)">
				<stop  offset="0" style="stop-color:#FFFFFF"/>
				<stop  offset="1" style="stop-color:#000000"/>
			</linearGradient>
			
				<rect x="185.05" y="153.36" style="fill:url(#SVGID_00000025435823451608364890000006642817650651902861_);" width="16.19" height="8.13"/>
		</g>
	</mask>
	
		<path style="mask:url(#SVGID_00000083770936463428079590000008412664728306156433_);fill-rule:evenodd;clip-rule:evenodd;fill:#FFFFFF;" d="
		M201.23,153.41c-0.73,1.29-1.53,2.57-1.89,3.23c-3.62,6.68-7.63,4.12-13.82,4.79c-0.16,0.02-0.32,0.04-0.48,0.06l1.71-3.43
		c1.41-2.3,2.96-3.76,5.63-4.33c1.41-0.3,2.94-0.35,4.37-0.36C198.25,153.35,199.74,153.39,201.23,153.41"/>
	<defs>
		
			<filter id="Adobe_OpacityMaskFilter_00000157992693416234490320000004782081074714000512_" filterUnits="userSpaceOnUse" x="174.07" y="176.46" width="5.67" height="2.48">
			<feColorMatrix  type="matrix" values="1 0 0 0 0  0 1 0 0 0  0 0 1 0 0  0 0 0 1 0"/>
		</filter>
	</defs>
	
		<mask maskUnits="userSpaceOnUse" x="174.07" y="176.46" width="5.67" height="2.48" id="SVGID_00000129207813893753565600000016341665700153541804_">
		<g style="filter:url(#Adobe_OpacityMaskFilter_00000157992693416234490320000004782081074714000512_);">
			
				<linearGradient id="SVGID_00000005944913727975510920000000467456148909389984_" gradientUnits="userSpaceOnUse" x1="-547.6155" y1="456.2764" x2="-547.6155" y2="461.3162" gradientTransform="matrix(1 0 0 1 724.5193 -282.4248)">
				<stop  offset="0" style="stop-color:#FFFFFF"/>
				<stop  offset="1" style="stop-color:#000000"/>
			</linearGradient>
			
				<rect x="174.07" y="176.46" style="fill:url(#SVGID_00000005944913727975510920000000467456148909389984_);" width="5.67" height="2.49"/>
		</g>
	</mask>
	
		<path style="mask:url(#SVGID_00000129207813893753565600000016341665700153541804_);fill-rule:evenodd;clip-rule:evenodd;fill:#FFFFFF;" d="
		M174.07,178.9c0.7-1.06,1.46-2.01,2.77-2.27c0.88-0.18,1.9-0.17,2.8-0.17c0.04,0,0.07,0,0.11,0c-0.69,1.07-1.49,2-2.1,2.25
		c-0.65,0.26-1.31,0.25-2,0.22C175.1,178.92,174.58,178.9,174.07,178.9"/>
	<defs>
		
			<filter id="Adobe_OpacityMaskFilter_00000118372879981855801340000015147762243313636020_" filterUnits="userSpaceOnUse" x="235.94" y="65.21" width="73.27" height="14.66">
			<feColorMatrix  type="matrix" values="1 0 0 0 0  0 1 0 0 0  0 0 1 0 0  0 0 0 1 0"/>
		</filter>
	</defs>
	
		<mask maskUnits="userSpaceOnUse" x="235.94" y="65.21" width="73.27" height="14.66" id="SVGID_00000016075285397951145110000012074796530659157406_">
		<g style="filter:url(#Adobe_OpacityMaskFilter_00000118372879981855801340000015147762243313636020_);">
			
				<linearGradient id="SVGID_00000116945984027058770500000014190150593655663028_" gradientUnits="userSpaceOnUse" x1="-462.7503" y1="354.6275" x2="-462.7503" y2="378.7953" gradientTransform="matrix(1 0 0 1 735.3224 -299.7247)">
				<stop  offset="0" style="stop-color:#FFFFFF"/>
				<stop  offset="1" style="stop-color:#000000"/>
			</linearGradient>
			
				<rect x="235.94" y="65.21" style="fill:url(#SVGID_00000116945984027058770500000014190150593655663028_);" width="73.27" height="14.67"/>
		</g>
	</mask>
	
		<path style="mask:url(#SVGID_00000016075285397951145110000012074796530659157406_);fill-rule:evenodd;clip-rule:evenodd;fill:#FFFFFF;" d="
		M235.94,79.87c1.6-2.98,3.3-5.9,5.03-8.81c1.45-2.45,3.11-4,5.84-4.84c3.38-1.06,8.03-1,11.56-1c16.95,0,33.89,0,50.84,0
		c-0.9,1.87-2.04,3.83-2.63,4.77c-1.32,2.11-4.33,6.47-6.53,7.59c-1.76,0.9-5.06,1.48-7.06,1.48h-40.17
		C245.81,79.05,241.7,77.87,235.94,79.87"/>
	<defs>
		
			<filter id="Adobe_OpacityMaskFilter_00000088126205339836565030000003883323198118847106_" filterUnits="userSpaceOnUse" x="217.34" y="94.11" width="51.41" height="15.27">
			<feColorMatrix  type="matrix" values="1 0 0 0 0  0 1 0 0 0  0 0 1 0 0  0 0 0 1 0"/>
		</filter>
	</defs>
	
		<mask maskUnits="userSpaceOnUse" x="217.34" y="94.11" width="51.41" height="15.27" id="SVGID_00000065774857336084636540000000066879894219398318_">
		<g style="filter:url(#Adobe_OpacityMaskFilter_00000088126205339836565030000003883323198118847106_);">
			
				<linearGradient id="SVGID_00000126307552344747757670000005255448579660090299_" gradientUnits="userSpaceOnUse" x1="-489.0285" y1="382.7062" x2="-489.0285" y2="399.8872" gradientTransform="matrix(1 0 0 1 732.075 -294.5721)">
				<stop  offset="0" style="stop-color:#FFFFFF"/>
				<stop  offset="1" style="stop-color:#000000"/>
			</linearGradient>
			
				<rect x="217.34" y="94.11" style="fill:url(#SVGID_00000126307552344747757670000005255448579660090299_);" width="51.41" height="15.27"/>
		</g>
	</mask>
	
		<path style="mask:url(#SVGID_00000065774857336084636540000000066879894219398318_);fill-rule:evenodd;clip-rule:evenodd;fill:#FFFFFF;" d="
		M268.75,94.62c-0.45,0.92-0.9,1.85-1.38,2.76c-4.13,7.94-7.42,11.09-16.8,11.04c-5.43-0.03-10.86-0.15-16.29-0.14
		c-3.27,0-6.55,0.03-9.82,0.16c-1.83,0.07-4.94,0.15-6.64,0.77c-0.16,0.06-0.32,0.12-0.48,0.18c2.87-5.86,7.4-11.97,12.05-14.06
		c1.13-0.51,4.15-0.74,5.41-0.84c3.29-0.25,6.63-0.33,9.94-0.37c5.95-0.06,11.89,0.11,17.83,0.11L268.75,94.62z"/>
	<defs>
		
			<filter id="Adobe_OpacityMaskFilter_00000031198641442064636270000013833081923294169507_" filterUnits="userSpaceOnUse" x="198.29" y="123.84" width="28.83" height="15.08">
			<feColorMatrix  type="matrix" values="1 0 0 0 0  0 1 0 0 0  0 0 1 0 0  0 0 0 1 0"/>
		</filter>
	</defs>
	
		<mask maskUnits="userSpaceOnUse" x="198.29" y="123.84" width="28.83" height="15.08" id="SVGID_00000078009894846026030940000014779074354564069293_">
		<g style="filter:url(#Adobe_OpacityMaskFilter_00000031198641442064636270000013833081923294169507_);">
			
				<linearGradient id="SVGID_00000064351096411918373830000005992147017440972430_" gradientUnits="userSpaceOnUse" x1="-516.0474" y1="406.6347" x2="-516.0474" y2="425.0756" gradientTransform="matrix(1 0 0 1 728.748 -289.4131)">
				<stop  offset="0" style="stop-color:#FFFFFF"/>
				<stop  offset="1" style="stop-color:#000000"/>
			</linearGradient>
			
				<rect x="198.29" y="123.84" style="fill:url(#SVGID_00000064351096411918373830000005992147017440972430_);" width="28.83" height="15.09"/>
		</g>
	</mask>
	
		<path style="mask:url(#SVGID_00000078009894846026030940000014779074354564069293_);fill-rule:evenodd;clip-rule:evenodd;fill:#FFFFFF;" d="
		M198.29,138.93c2.49-4.68,5.57-9.65,7.23-11.35c2.9-2.96,5.96-3.32,9.92-3.62c0.88-0.07,1.82-0.06,2.7-0.08
		c1.61-0.03,3.22-0.04,4.83-0.03c1.38,0,2.76,0.01,4.15,0.04c-0.28,0.52-0.55,1.02-0.79,1.44c-0.89,1.6-1.84,3.17-2.71,4.77
		c-2.69,4.98-5.3,7.55-10.98,7.74c-2.6,0.09-5.19-0.13-7.8-0.01C202.55,137.93,200.39,138.26,198.29,138.93"/>
	<path class="st0" d="M135.16,10.15h13.75c3.03,0,4.13,0.57,6.6-0.75c0.62-0.33,1.01-0.72,1.58-1.03c-0.34,1.45-2.26,4.72-3.15,6.22
		c-1.39,2.35-3.32,2.56-6.93,2.56c-6.32,0-12.64,0-18.97,0c0.11-1.32,2.51-5.51,4.19-6.37C132.9,10.44,134.18,10.15,135.16,10.15"/>
	<path class="st0" d="M157.09,0c-0.42,1.61-1.75,3.8-2.68,5.08c-2.54,3.5-4.4,2.84-10.21,2.84c0.04-1.44,2.11-4.97,4.3-5.74
		c1.8-0.63,3.22-0.05,5.07-0.4C155.01,1.5,156.05,0.61,157.09,0"/>
	<path class="st0" d="M102.11,35.98h34.44c7.58,0,10.35,1.42,16.53-1.88c1.56-0.83,2.52-1.81,3.96-2.57
		c-0.85,3.64-5.66,11.81-7.89,15.57c-3.49,5.9-8.32,6.4-17.35,6.4c-15.83,0-31.67,0-47.51,0c0.28-3.31,6.29-13.81,10.48-15.94
		C96.45,36.7,99.66,35.98,102.11,35.98"/>
	<path class="st0" d="M123.19,20.61h21.24c4.68,0,6.38,0.88,10.2-1.16c0.96-0.51,1.55-1.12,2.44-1.59c-0.52,2.25-3.49,7.29-4.86,9.6
		c-2.15,3.64-5.13,3.95-10.7,3.95c-9.77,0-19.53,0-29.3,0c0.17-2.04,3.88-8.52,6.46-9.83C119.7,21.06,121.68,20.61,123.19,20.61"/>
	<defs>
		
			<filter id="Adobe_OpacityMaskFilter_00000173843719908689295340000008024450891818006441_" filterUnits="userSpaceOnUse" x="88.97" y="38.9" width="61.09" height="11.3">
			<feColorMatrix  type="matrix" values="1 0 0 0 0  0 1 0 0 0  0 0 1 0 0  0 0 0 1 0"/>
		</filter>
	</defs>
	
		<mask maskUnits="userSpaceOnUse" x="88.97" y="38.9" width="61.09" height="11.3" id="SVGID_00000044167217237547761740000006266361817257572769_">
		<g style="filter:url(#Adobe_OpacityMaskFilter_00000173843719908689295340000008024450891818006441_);">
			
				<linearGradient id="SVGID_00000008144803953657762940000009247046179098134172_" gradientUnits="userSpaceOnUse" x1="-590.1447" y1="336.3232" x2="-590.1447" y2="355.1076" gradientTransform="matrix(1 0 0 1 709.6598 -304.9055)">
				<stop  offset="0" style="stop-color:#FFFFFF"/>
				<stop  offset="1" style="stop-color:#000000"/>
			</linearGradient>
			
				<rect x="88.97" y="38.9" style="fill:url(#SVGID_00000008144803953657762940000009247046179098134172_);" width="61.09" height="11.3"/>
		</g>
	</mask>
	
		<path style="mask:url(#SVGID_00000044167217237547761740000006266361817257572769_);fill-rule:evenodd;clip-rule:evenodd;fill:#FFFFFF;" d="
		M88.97,50.2c0.7-1.37,1.48-2.71,1.9-3.38c1.07-1.72,3.63-5.42,5.4-6.33c1.44-0.73,4.2-1.21,5.83-1.21h34.44
		c5.63,0,9.08,0.86,13.51-0.38c-1.2,2.2-2.47,4.36-3.75,6.52c-1.19,2-2.52,3.25-4.74,3.95c-2.85,0.88-6.81,0.84-9.77,0.84
		C117.52,50.2,103.24,50.2,88.97,50.2"/>
	<defs>
		
			<filter id="Adobe_OpacityMaskFilter_00000045607622809272720110000005308891124882541195_" filterUnits="userSpaceOnUse" x="117.25" y="23.91" width="33.15" height="4.21">
			<feColorMatrix  type="matrix" values="1 0 0 0 0  0 1 0 0 0  0 0 1 0 0  0 0 0 1 0"/>
		</filter>
	</defs>
	
		<mask maskUnits="userSpaceOnUse" x="117.25" y="23.91" width="33.15" height="4.21" id="SVGID_00000026873781299872036290000001377714128233841843_">
		<g style="filter:url(#Adobe_OpacityMaskFilter_00000045607622809272720110000005308891124882541195_);">
			
				<linearGradient id="SVGID_00000028286299211035709680000012625836034967486872_" gradientUnits="userSpaceOnUse" x1="-580.778" y1="330.5286" x2="-580.778" y2="336.3701" gradientTransform="matrix(1 0 0 1 714.5974 -308.7604)">
				<stop  offset="0" style="stop-color:#FFFFFF"/>
				<stop  offset="1" style="stop-color:#000000"/>
			</linearGradient>
			
				<rect x="117.25" y="23.91" style="fill:url(#SVGID_00000028286299211035709680000012625836034967486872_);" width="33.15" height="4.21"/>
		</g>
	</mask>
	
		<path style="mask:url(#SVGID_00000026873781299872036290000001377714128233841843_);fill-rule:evenodd;clip-rule:evenodd;fill:#FFFFFF;" d="
		M150.39,24.07c-0.4,0.68-0.76,1.28-1.02,1.72c-0.57,0.96-1.15,1.54-2.22,1.87c-1.6,0.5-3.98,0.46-5.65,0.46
		c-8.09,0-16.17,0-24.26,0c1.01-1.63,2.2-3.22,2.92-3.6c0.7-0.35,2.23-0.61,3.02-0.61h21.24C146.86,23.91,148.64,24.14,150.39,24.07
		"/>
	<path class="st49" d="M729.69,184.31h3.5l7.23-31.32h-7.98l-0.38,1.65h4.44L729.69,184.31z M715.42,184.31h3.5l7.23-31.32h-7.98
		l-0.38,1.65h4.44L715.42,184.31z M707.01,168.72c-2.22,9.4-5.95,14.6-10.16,14.6c-4.3,0-5.48-5.1-3.35-14.6
		c2.12-9.4,5.81-14.6,10.11-14.6C707.82,154.12,709.14,159.23,707.01,168.72z M690.15,168.68c-2.31,10.39,0,16.2,6.38,16.2
		c6.28,0,11.43-5.86,13.84-16.2c2.41-10.21-0.28-16.25-6.38-16.25c-3.17,0-5.95,1.42-8.41,4.25
		C693.17,159.51,691.33,163.52,690.15,168.68z M674.79,171.7c-4.91,4.16-8.31,8.03-9.68,12.61h18.38l0.61-2.74h-14.98
		c0.76-1.56,1.94-3.17,3.54-4.77c1.65-1.65,3.31-3.12,5.01-4.44c1.75-1.37,3.4-2.74,5.01-4.11c3.26-2.83,5.57-6.19,5.57-9.59
		c0-3.59-3.12-6.24-8.36-6.24c-2.74,0-4.96,0.57-6.71,1.75c-1.75,1.18-2.6,2.65-2.6,4.49c0,2.13,1.65,3.35,3.31,3.35
		c0.61,0,0.9-0.24,0.9-0.71c0-0.14-1.09-1.04-1.09-2.79c0-1.18,0.57-2.22,1.75-3.12c1.18-0.9,2.6-1.32,4.2-1.32
		c3.26,0,5.15,1.89,5.15,4.77c0,1.84-0.71,3.64-2.17,5.38C681.22,165.98,678.62,168.49,674.79,171.7z M636.53,177.56
		c0,4.73,3.07,7.32,7.42,7.32c1.75,0,3.4-0.43,5.06-1.32c1.65-0.9,2.6-1.84,2.83-2.79v-0.14c0-0.28-0.14-0.43-0.43-0.43
		c-0.38,0-2.6,2.69-6.28,2.69c-3.17,0-5.01-1.84-5.01-5.62c0-3.02,1.28-6.71,3.78-9.21c1.28-1.28,2.65-1.94,4.2-1.94
		c1.75,0,3.07,1.46,3.07,3.5c0,1.61-0.62,3.17-1.84,4.63c-1.23,1.47-2.6,2.22-4.16,2.22c-1.65,0-2.93-0.71-3.07-0.71
		c-0.38,0-0.57,0.24-0.57,0.76c0,0.94,1.65,1.61,4.06,1.61c2.13,0,4.16-0.85,6.05-2.6c1.89-1.75,2.83-3.73,2.83-5.86
		c0-2.83-2.6-5.05-6-5.05c-3.26,0-6.09,1.32-8.46,4.01C637.71,171.27,636.53,174.25,636.53,177.56z M618.01,177.56
		c0,4.49,2.93,7.32,7.46,7.32c2.88,0,5.81-1.56,7.32-3.12c0.38-0.42,0.57-0.8,0.57-1.13c0-0.24-0.14-0.38-0.38-0.38
		c-0.38,0-2.79,2.65-6.28,2.65c-2.98,0-5.1-2.08-5.1-5.62c0-3.07,1.27-6.76,3.87-9.26c1.28-1.28,2.69-1.89,4.25-1.89
		c1.84,0,3.17,1.23,3.21,2.6c0,0.57-0.33,1.13,0.47,1.13c0.99,0,1.75-0.94,1.75-2.22c-0.05-1.7-2.55-3.02-5.06-3.02
		c-3.31,0-6.14,1.32-8.55,3.97C619.19,171.23,618.01,174.2,618.01,177.56z M609.36,181.01c0,2.13,1.46,3.69,3.5,3.69
		c1.32,0,2.31-0.85,2.31-1.46c0-0.28-0.14-0.43-0.47-0.43c-0.24,0-0.66,0.38-0.99,0.38c-0.66,0-0.99-0.57-0.99-1.7
		c0-0.61,0.14-1.51,0.42-2.69l1.51-6.61c1.09-4.58-1.28-7.56-6.57-7.56c-2.08,0-4.02,0.57-5.81,1.65c-0.57-0.9-1.46-1.37-2.65-1.37
		c-1.46,0-2.5,0.8-2.5,1.37c0,0.33,0.14,0.52,0.47,0.52c0.24,0,0.57-0.33,0.9-0.33c0.61,0,0.94,0.47,0.94,1.37
		c0,0.52-0.05,1.04-0.19,1.61l-3.4,14.88h3.5l2.93-12.94c0.8-3.64,2.5-4.96,5.67-4.96c2.83,0,4.06,2.27,3.17,6l-1.42,6.14
		C609.46,179.54,609.36,180.39,609.36,181.01z M586.21,181.29c0,2.03,1.46,3.4,3.31,3.4c1.56,0,2.41-0.66,2.41-1.46
		c0-0.28-0.14-0.43-0.43-0.43c-0.19,0-0.62,0.38-0.94,0.38c-0.66,0-0.99-0.47-0.99-1.47c0-0.61,0.14-1.51,0.43-2.79l3.12-13.75h-3.5
		l-3.07,13.51C586.31,179.59,586.21,180.44,586.21,181.29z M590.51,159.56c0,0.99,0.66,1.65,1.75,1.65c1.56,0,2.83-1.27,2.83-2.84
		c0-0.99-0.71-1.61-1.79-1.61C591.79,156.77,590.51,158.05,590.51,159.56z M562.02,179.02c0,1.46,0.8,2.83,2.46,4.06
		c1.65,1.18,3.64,1.8,5.95,1.8c3.4,0,6.28-1.04,8.65-3.12c2.41-2.12,3.59-4.82,3.59-8.08c0-1.46-0.47-2.83-1.42-4.02
		c-0.9-1.18-2.5-2.55-4.82-4.11c-3.64-2.5-4.87-3.97-4.87-5.72c0-1.7,0.71-3.07,2.08-4.16c1.37-1.09,2.93-1.61,4.68-1.61
		c1.75,0,3.17,0.66,4.16,1.99c0.94,1.27,1.09,2.69,1.8,2.5c0.57,0,1.27-0.8,1.27-1.94c0-1.13-0.71-2.13-2.08-2.93
		c-1.37-0.85-3.07-1.27-5.1-1.27c-2.83,0-5.29,0.85-7.32,2.5c-2.03,1.65-3.07,3.83-3.07,6.57c0,2.5,1.46,4.39,5.39,7.09
		c4.3,2.88,5.57,4.54,5.57,6.47c0,2.13-0.8,4.02-2.46,5.62c-1.61,1.61-3.5,2.41-5.62,2.41c-1.56,0-2.88-0.42-3.97-1.23
		c-1.09-0.85-1.61-1.84-1.61-2.93c0-1.98,1.18-2.22,1.18-2.6c0-0.43-0.42-0.66-1.32-0.66c-0.9,0-1.61,0.33-2.22,0.94
		C562.31,177.23,562.02,178.03,562.02,179.02z"/>
	<path class="st49" d="M860.63,84.43c0-3.79-0.85-6.48-2.54-8.07c-1.69-1.59-4.1-2.38-7.23-2.38c-6.51,0-9.76,3.49-9.76,10.45v5.87
		h19.53V84.43z M860.63,118.04v-15.07H841.1v15.07h-14.07V84.43c0-3.97,0.57-7.46,1.73-10.47c1.16-3.02,2.8-5.44,4.92-7.29
		c2.12-1.84,4.62-3.22,7.5-4.14c2.87-0.91,6.09-1.37,9.69-1.37c15.87,0,23.8,7.76,23.8,23.27v33.61H860.63z M808.06,74.83v43.21
		h-14.04V74.83h-16.43V62.12h46.87v12.71H808.06z M764.09,118.04l-16.4-27.2h5c2.56,0,4.66-0.74,6.28-2.25
		c1.62-1.5,2.42-3.48,2.42-5.95c0-2.77-0.73-4.91-2.16-6.41c-1.43-1.5-3.48-2.25-6.12-2.25c-2.59,0-4.6,0.7-6.02,2.12
		c-1.41,1.41-2.11,3.54-2.11,6.39v35.55H730.9V82.1c0-6.97,1.95-12.2,5.87-15.69c3.92-3.5,9.41-5.25,16.48-5.25
		c6.97,0,12.51,1.72,16.63,5.14c4.12,3.44,6.19,8.25,6.19,14.47c0,1.8-0.17,3.49-0.48,5.07c-0.31,1.57-0.73,2.92-1.24,4.02
		c-0.51,1.11-1.07,2.12-1.67,3.03c-0.6,0.92-1.2,1.65-1.81,2.21c-0.61,0.56-1.17,1.03-1.68,1.42c-0.51,0.38-0.91,0.64-1.22,0.79
		l-0.49,0.24l13.5,20.48H764.09z M710.14,84.43c0-3.79-0.85-6.48-2.54-8.07c-1.69-1.59-4.1-2.38-7.23-2.38
		c-6.51,0-9.76,3.49-9.76,10.45v5.87h19.53V84.43z M710.14,118.04v-15.07h-19.53v15.07h-14.07V84.43c0-3.97,0.57-7.46,1.73-10.47
		c1.16-3.02,2.8-5.44,4.92-7.29c2.12-1.84,4.62-3.22,7.5-4.14c2.87-0.91,6.09-1.37,9.69-1.37c15.87,0,23.8,7.76,23.8,23.27v33.61
		H710.14z M655.8,118.04V94.99h-18.66v23.05h-14.08V62.12h14.08v20.14h18.66V62.12h14.08v55.92H655.8z M602.31,84.43
		c0-3.79-0.85-6.48-2.54-8.07c-1.69-1.59-4.1-2.38-7.23-2.38c-6.51,0-9.77,3.49-9.77,10.45v5.87h19.53V84.43z M602.31,118.04v-15.07
		h-19.53v15.07h-14.07V84.43c0-3.97,0.57-7.46,1.73-10.47c1.16-3.02,2.8-5.44,4.92-7.29c2.12-1.84,4.62-3.22,7.5-4.14
		c2.87-0.91,6.09-1.37,9.69-1.37c15.87,0,23.8,7.76,23.8,23.27v33.61H602.31z M547.95,118.04V84.43c0-3.66-0.83-6.31-2.5-7.97
		c-1.65-1.65-4.13-2.49-7.41-2.49c-6.62,0-9.92,3.49-9.92,10.45v33.61h-14.08V84.43c0-3.97,0.59-7.46,1.76-10.47
		c1.16-3.02,2.83-5.44,4.97-7.29c2.15-1.84,4.66-3.22,7.55-4.14c2.89-0.91,6.12-1.37,9.71-1.37c15.99,0,23.98,7.76,23.98,23.27
		v33.61H547.95z M493.31,118.04V94.99h-18.66v23.05h-14.07V62.12h14.07v20.14h18.66V62.12h14.07v55.92H493.31z M454.96,96.87
		c0,2.57-0.3,4.92-0.9,7.06c-0.6,2.14-1.37,3.92-2.33,5.36c-0.95,1.43-2.1,2.71-3.45,3.82c-1.34,1.11-2.7,1.97-4.06,2.6
		c-1.35,0.64-2.83,1.16-4.39,1.56c-1.56,0.42-2.97,0.68-4.21,0.81c-1.25,0.13-2.49,0.19-3.71,0.19c-8.87,0-15.61-2.59-20.21-7.77
		c-4.61-5.17-6.91-12.26-6.91-21.3c0-9.18,2.4-15.99,7.16-20.43c4.77-4.44,11.65-6.65,20.65-6.65h17.97v12.81h-16.01
		c-2.45,0-4.53,0.22-6.26,0.64c-1.73,0.42-3.28,1.13-4.67,2.15c-1.38,1.02-2.42,2.49-3.11,4.39c-0.68,1.91-1.03,4.27-1.03,7.1
		c0,10.83,4.05,16.25,12.13,16.25c1.17,0,2.29-0.18,3.36-0.55c1.07-0.38,2.06-0.92,2.96-1.64c0.9-0.73,1.62-1.72,2.15-2.98
		c0.53-1.25,0.81-2.68,0.81-4.28v-9.13h14.07V96.87z M385.12,118.04V62.12h14.03v55.92H385.12z M354.68,120.55l-29.59-58.43h16.09
		l13.5,31.31l13.5-31.31h16.11L354.68,120.55z"/>
	<defs>
		
			<filter id="Adobe_OpacityMaskFilter_00000146500215912424752190000005272630186383207304_" filterUnits="userSpaceOnUse" x="328.77" y="63.43" width="543.65" height="52.58">
			<feColorMatrix  type="matrix" values="1 0 0 0 0  0 1 0 0 0  0 0 1 0 0  0 0 0 1 0"/>
		</filter>
	</defs>
	
		<mask maskUnits="userSpaceOnUse" x="328.77" y="63.43" width="543.65" height="52.58" id="SVGID_00000082330070910058661520000000133001644531397271_">
		<g style="filter:url(#Adobe_OpacityMaskFilter_00000146500215912424752190000005272630186383207304_);">
			
				<linearGradient id="SVGID_00000156557577479860538610000001837404809401778834_" gradientUnits="userSpaceOnUse" x1="-150.9343" y1="327.1849" x2="-150.9343" y2="394.1333" gradientTransform="matrix(1 0 0 1 751.5323 -293.4147)">
				<stop  offset="0" style="stop-color:#FFFFFF"/>
				<stop  offset="1" style="stop-color:#000000"/>
			</linearGradient>
			
				<rect x="328.77" y="63.43" style="fill:url(#SVGID_00000156557577479860538610000001837404809401778834_);" width="543.65" height="52.58"/>
		</g>
	</mask>
	
		<path style="mask:url(#SVGID_00000082330070910058661520000000133001644531397271_);fill-rule:evenodd;clip-rule:evenodd;fill:#FFFFFF;" d="
		M862.91,84.43v8.13h-24.06v-8.13c0-7.87,3.94-12.72,12.03-12.72c3.2,0,6.38,0.75,8.77,3C862.28,77.17,862.91,81,862.91,84.43
		 M862.91,115.78h9.51V84.43c0-14.51-7.19-21.01-21.54-21.01c-3.03,0-6.11,0.33-9,1.26c-2.47,0.79-4.74,1.99-6.71,3.69
		c-1.99,1.73-3.35,3.95-4.29,6.39c-1.18,3.05-1.58,6.4-1.58,9.66v31.34h9.55v-15.06h24.06V115.78z M822.22,72.56v-8.18h-42.35v8.18
		h16.43v43.22h9.51V72.56H822.22z M765.38,115.78h11.41l-12.62-19.15l2.83-1.34c0.27-0.14,0.59-0.37,0.85-0.56
		c0.53-0.4,1.03-0.84,1.52-1.28c0.56-0.51,1.03-1.15,1.44-1.78c0.57-0.87,1.07-1.79,1.5-2.74c0.51-1.11,0.84-2.33,1.07-3.52
		c0.3-1.52,0.44-3.07,0.44-4.63c0-5-1.44-9.45-5.37-12.73c-4.24-3.54-9.78-4.62-15.18-4.62c-5.31,0-10.89,1.03-14.98,4.67
		c-3.99,3.56-5.12,8.85-5.12,14v33.67h9.55V82.49c0-2.9,0.65-5.87,2.77-7.99c2.05-2.05,4.78-2.79,7.62-2.79
		c2.92,0,5.7,0.8,7.76,2.95c2.07,2.16,2.79,5.04,2.79,7.97c0,2.95-0.97,5.58-3.14,7.61c-2.17,2.02-4.88,2.86-7.82,2.86h-0.99
		L765.38,115.78z M712.42,84.43v8.13h-24.06v-8.13c0-7.87,3.94-12.72,12.03-12.72c3.2,0,6.38,0.75,8.77,3
		C711.79,77.17,712.42,81,712.42,84.43z M712.42,115.78h9.51V84.43c0-14.51-7.19-21.01-21.54-21.01c-3.03,0-6.11,0.33-9,1.26
		c-2.47,0.79-4.74,1.99-6.7,3.69c-1.99,1.73-3.35,3.95-4.29,6.39c-1.17,3.05-1.58,6.4-1.58,9.66v31.34h9.55v-15.06h24.06V115.78z
		 M658.07,115.78h9.55v-51.4h-9.55v20.14h-23.18V64.38h-9.55v51.4h9.55V92.73h23.18V115.78z M604.59,84.43v8.13h-24.06v-8.13
		c0-7.87,3.93-12.72,12.03-12.72c3.2,0,6.38,0.75,8.77,3C603.95,77.17,604.59,81,604.59,84.43z M604.59,115.78h9.51V84.43
		c0-14.51-7.19-21.01-21.54-21.01c-3.03,0-6.11,0.33-9,1.26c-2.47,0.79-4.74,1.99-6.71,3.69c-1.99,1.73-3.35,3.95-4.29,6.39
		c-1.18,3.05-1.58,6.4-1.58,9.66v31.34h9.55v-15.06h24.06V115.78z M550.23,115.78h9.55V84.43c0-14.59-7.35-21.01-21.72-21.01
		c-3.04,0-6.12,0.34-9.03,1.26c-2.49,0.79-4.78,2-6.76,3.7c-2.01,1.72-3.39,3.94-4.34,6.39c-1.18,3.06-1.61,6.39-1.61,9.65v31.34
		h9.55V84.43c0-7.95,4.06-12.72,12.19-12.72c3.28,0,6.61,0.76,9.01,3.15c2.5,2.5,3.17,6.17,3.17,9.57V115.78z M495.58,115.78h9.55
		v-51.4h-9.55v20.14h-23.18V64.38h-9.55v51.4h9.55V92.73h23.18V115.78z M452.71,89.13h-9.55v6.86c0,1.77-0.29,3.53-0.99,5.17
		c-0.64,1.49-1.54,2.84-2.81,3.86c-1.09,0.87-2.31,1.55-3.63,2.01c-1.32,0.46-2.7,0.67-4.1,0.67c-11.06,0-14.4-8.77-14.4-18.51
		c0-2.62,0.27-5.38,1.16-7.86c0.78-2.16,2.04-4.08,3.9-5.45c1.65-1.21,3.49-2.04,5.48-2.52c2.2-0.53,4.53-0.7,6.79-0.7h13.75v-8.29
		h-15.71c-6.75,0-14,1.29-19.11,6.05c-5.12,4.77-6.44,12.07-6.44,18.77c0,7.12,1.49,14.34,6.34,19.8
		c4.76,5.35,11.57,7.01,18.52,7.01c1.16,0,2.32-0.06,3.48-0.18c1.3-0.13,2.6-0.41,3.87-0.75c1.37-0.36,2.72-0.82,4-1.42
		c1.29-0.61,2.49-1.4,3.59-2.3c1.16-0.96,2.17-2.07,3-3.32c0.94-1.42,1.58-3.09,2.04-4.72c0.59-2.09,0.82-4.28,0.82-6.45V89.13z
		 M387.39,115.78h9.51v-51.4h-9.51V115.78z M354.68,115.54l25.93-51.17h-10.94l-14.99,34.77l-14.99-34.77h-10.92L354.68,115.54z"/>
	<path class="st49" d="M517.17,156.36c0-5.73-0.91-9.84-2.75-12.34c-1.82-2.51-4.79-3.76-8.88-3.76c-2.4,0-4.47,0.78-6.2,2.33
		c-1.74,1.55-2.62,3.96-2.62,7.21v21.77h5.08c2.43,0,4.57-0.25,6.38-0.74c1.82-0.49,3.42-1.31,4.8-2.46
		c1.39-1.15,2.44-2.71,3.14-4.7C516.82,161.66,517.17,159.22,517.17,156.36 M531.86,156.36c0,9.27-2.41,16.26-7.24,20.94
		c-4.84,4.67-11.75,7.02-20.72,7.02h-21.25v-35.48c0-2.62,0.29-5,0.86-7.15c0.57-2.15,1.32-3.95,2.25-5.4
		c0.92-1.45,2.04-2.72,3.35-3.83c1.32-1.11,2.63-1.97,3.93-2.59c1.32-0.62,2.73-1.13,4.26-1.51c1.52-0.38,2.88-0.63,4.06-0.74
		c1.18-0.12,2.37-0.17,3.57-0.17c4.54,0,8.54,0.66,11.98,2c3.42,1.33,6.24,3.26,8.41,5.77c2.18,2.53,3.8,5.55,4.9,9.09
		C531.31,147.83,531.86,151.85,531.86,156.36z M459.46,184.31c-6.85,0-12.1-1.67-15.75-5c-3.67-3.33-5.5-8.42-5.5-15.3v-35.63h14.08
		v34.38c0,3.2,0.72,5.47,2.13,6.81c1.42,1.33,3.49,1.99,6.21,1.99h16.94v12.75H459.46z M418.16,156.36c0-5.62-1-9.73-3.01-12.3
		c-2.02-2.59-5.13-3.88-9.35-3.88c-4.13,0-7.2,1.32-9.26,3.96c-2.04,2.63-3.07,6.71-3.07,12.23c0,5.37,1.05,9.4,3.15,12.11
		c2.1,2.71,5.16,4.06,9.18,4.06C414.04,172.53,418.16,167.14,418.16,156.36z M432.84,156.36c0,8.92-2.31,15.98-6.9,21.15
		c-4.61,5.17-11.33,7.76-20.14,7.76c-8.83,0-15.55-2.55-20.14-7.64c-4.61-5.1-6.9-12.19-6.9-21.26c0-9.39,2.33-16.56,7.02-21.5
		c4.68-4.95,11.35-7.42,20.03-7.42c8.75,0,15.44,2.46,20.08,7.39C430.53,139.77,432.84,146.94,432.84,156.36z M375.26,163.14
		c0,2.57-0.3,4.92-0.9,7.06c-0.6,2.14-1.37,3.92-2.33,5.37c-0.95,1.43-2.1,2.71-3.45,3.81c-1.34,1.11-2.7,1.97-4.06,2.6
		c-1.35,0.64-2.83,1.16-4.39,1.56c-1.56,0.42-2.97,0.68-4.21,0.81c-1.25,0.13-2.49,0.19-3.71,0.19c-8.87,0-15.61-2.59-20.21-7.77
		c-4.61-5.17-6.91-12.26-6.91-21.3c0-9.18,2.4-15.99,7.16-20.43c4.76-4.44,11.65-6.65,20.65-6.65h17.97v12.81h-16.02
		c-2.45,0-4.53,0.22-6.26,0.64c-1.73,0.42-3.28,1.13-4.67,2.15c-1.38,1.01-2.42,2.49-3.11,4.39c-0.68,1.91-1.03,4.27-1.03,7.1
		c0,10.83,4.05,16.25,12.13,16.25c1.17,0,2.29-0.18,3.36-0.55c1.07-0.38,2.06-0.92,2.96-1.64c0.9-0.73,1.62-1.72,2.15-2.98
		c0.53-1.25,0.81-2.68,0.81-4.28v-9.13h14.07V163.14z"/>
	<defs>
		
			<filter id="Adobe_OpacityMaskFilter_00000023972678114639899720000003057628177885949622_" filterUnits="userSpaceOnUse" x="327.36" y="129.71" width="202.23" height="53.29">
			<feColorMatrix  type="matrix" values="1 0 0 0 0  0 1 0 0 0  0 0 1 0 0  0 0 0 1 0"/>
		</filter>
	</defs>
	
		<mask maskUnits="userSpaceOnUse" x="327.36" y="129.71" width="202.23" height="53.29" id="SVGID_00000081612648134388585070000012995282930791634077_">
		<g style="filter:url(#Adobe_OpacityMaskFilter_00000023972678114639899720000003057628177885949622_);">
			
				<linearGradient id="SVGID_00000145029598765526389150000015190385882573200266_" gradientUnits="userSpaceOnUse" x1="-322.8135" y1="381.8431" x2="-322.8135" y2="454.0031" gradientTransform="matrix(1 0 0 1 751.2851 -281.7184)">
				<stop  offset="0" style="stop-color:#FFFFFF"/>
				<stop  offset="1" style="stop-color:#000000"/>
			</linearGradient>
			
				<rect x="327.36" y="129.71" style="fill:url(#SVGID_00000145029598765526389150000015190385882573200266_);" width="202.23" height="53.29"/>
		</g>
	</mask>
	
		<path style="mask:url(#SVGID_00000081612648134388585070000012995282930791634077_);fill-rule:evenodd;clip-rule:evenodd;fill:#FFFFFF;" d="
		M519.43,156.36c0,2.69-0.28,5.5-1.17,8.05c-0.77,2.22-2.01,4.19-3.84,5.7c-1.66,1.37-3.57,2.33-5.65,2.9
		c-2.25,0.61-4.65,0.82-6.98,0.82h-7.35v-24.04c0-3.31,0.82-6.63,3.38-8.91c2.17-1.94,4.79-2.91,7.71-2.91
		c4.18,0,8.16,1.2,10.71,4.69C518.94,146.36,519.43,151.94,519.43,156.36 M484.92,182.04h18.98c6.9,0,14.02-1.43,19.14-6.38
		c5.17-5,6.55-12.4,6.55-19.31c0-3.82-0.41-7.73-1.54-11.39c-0.94-3.04-2.36-5.86-4.45-8.28c-2.04-2.36-4.63-4.01-7.52-5.14
		c-3.53-1.37-7.39-1.85-11.16-1.85c-1.12,0-2.23,0.05-3.34,0.16c-1.25,0.13-2.52,0.38-3.74,0.69c-1.32,0.33-2.6,0.77-3.83,1.36
		c-1.24,0.59-2.39,1.39-3.44,2.28c-1.13,0.96-2.1,2.07-2.9,3.32c-0.92,1.44-1.53,3.12-1.97,4.76c-0.57,2.13-0.78,4.36-0.78,6.56
		V182.04z M475.31,182.04v-8.21h-14.67c-2.81,0-5.66-0.63-7.76-2.61c-2.29-2.15-2.85-5.46-2.85-8.46v-32.11h-9.54v33.36
		c0,4.9,0.96,10.18,4.75,13.62c3.83,3.48,9.23,4.41,14.23,4.41H475.31z M420.42,156.36c0,9.89-3.51,18.44-14.63,18.44
		c-4.35,0-8.25-1.43-10.97-4.94c-2.9-3.74-3.63-8.9-3.63-13.5c0-4.57,0.66-9.9,3.55-13.62c2.73-3.51,6.7-4.83,11.05-4.83
		c4.32,0,8.4,1.24,11.14,4.76C419.82,146.36,420.42,151.82,420.42,156.36z M430.58,156.36c0-7.06-1.34-14.65-6.35-19.97
		c-4.82-5.12-11.61-6.68-18.43-6.68c-6.84,0-13.54,1.61-18.38,6.71c-5.03,5.31-6.4,12.87-6.4,19.94c0,7.07,1.44,14.35,6.32,19.74
		c4.76,5.28,11.57,6.89,18.46,6.89c6.93,0,13.7-1.67,18.45-7C429.07,170.58,430.58,163.43,430.58,156.36z M372.99,155.41h-9.54v6.86
		c0,1.77-0.29,3.53-0.99,5.17c-0.64,1.5-1.54,2.84-2.81,3.86c-1.09,0.88-2.31,1.56-3.63,2.02c-1.32,0.46-2.7,0.67-4.1,0.67
		c-11.06,0-14.4-8.78-14.4-18.52c0-2.62,0.27-5.38,1.16-7.86c0.78-2.16,2.04-4.08,3.91-5.45c1.65-1.21,3.49-2.05,5.48-2.52
		c2.2-0.53,4.53-0.7,6.79-0.7h13.75v-8.28h-15.7c-6.75,0-14,1.29-19.11,6.05c-5.12,4.77-6.44,12.06-6.44,18.77
		c0,7.12,1.49,14.34,6.34,19.79c4.76,5.35,11.57,7.01,18.51,7.01c1.16,0,2.32-0.06,3.48-0.18c1.3-0.14,2.6-0.41,3.87-0.75
		c1.37-0.36,2.72-0.82,4-1.42c1.29-0.61,2.49-1.4,3.59-2.3c1.16-0.95,2.17-2.07,3-3.32c0.94-1.42,1.58-3.09,2.04-4.72
		c0.59-2.09,0.81-4.28,0.81-6.45V155.41z"/>
	<path class="st49" d="M309.66,35.73c-1.75-1.75-4.16-2.83-6.83-2.83c-2.67,0-5.08,1.08-6.83,2.83c-1.75,1.75-2.83,4.16-2.83,6.83
		c0,2.67,1.08,5.08,2.83,6.83c1.75,1.75,4.16,2.83,6.83,2.83c2.67,0,5.08-1.08,6.83-2.83c1.75-1.75,2.83-4.16,2.83-6.83
		C312.49,39.89,311.41,37.48,309.66,35.73 M302.83,31.68c3,0,5.73,1.22,7.69,3.19c1.97,1.97,3.19,4.69,3.19,7.69
		c0,3-1.22,5.72-3.19,7.69c-1.97,1.97-4.69,3.19-7.69,3.19c-3,0-5.72-1.22-7.69-3.19c-1.97-1.97-3.19-4.69-3.19-7.69
		c0-3,1.22-5.73,3.19-7.69C297.11,32.9,299.83,31.68,302.83,31.68z"/>
	<path class="st49" d="M300.11,41.93h3.07c0.65,0,1.16-0.07,1.53-0.21c0.37-0.13,0.65-0.35,0.84-0.65c0.19-0.3,0.29-0.62,0.29-0.97
		c0-0.51-0.18-0.94-0.55-1.26s-0.95-0.49-1.75-0.49h-3.42V41.93z M298.67,47.97V37.15h4.79c0.96,0,1.7,0.1,2.2,0.29
		c0.5,0.19,0.9,0.54,1.2,1.03c0.3,0.49,0.45,1.03,0.45,1.63c0,0.77-0.25,1.42-0.75,1.94c-0.5,0.53-1.26,0.86-2.3,1
		c0.38,0.18,0.67,0.36,0.86,0.54c0.42,0.38,0.81,0.86,1.18,1.44l1.87,2.95h-1.79l-1.43-2.25c-0.42-0.65-0.76-1.15-1.03-1.49
		c-0.27-0.34-0.51-0.58-0.73-0.72c-0.21-0.13-0.43-0.23-0.65-0.29c-0.16-0.03-0.43-0.05-0.8-0.05h-1.66v4.8H298.67z"/>
</g>
</svg>
